<?xml version="1.0" encoding="utf-8"?>
<!-- Generator: Adobe Illustrator 23.0.0, SVG Export Plug-In . SVG Version: 6.00 Build 0)  -->
<svg version="1.1" id="Layer_1" xmlns="http://www.w3.org/2000/svg" xmlns:xlink="http://www.w3.org/1999/xlink" x="0px" y="0px"
	 viewBox="0 0 512 512" style="enable-background:new 0 0 512 512;" xml:space="preserve">
<style type="text/css">
	.st0{fill:#707487;}
	.st1{fill:#AFB9D2;}
	.st2{fill:#FFD764;}
	.st3{fill:#E4EAF6;}
	.st4{fill:#959CB3;}
	.st5{fill:#FFE678;}
	.st6{fill:#FFF08C;}
	.st7{fill:#FFBE5A;}
	.st8{fill:none;stroke:#A10C11;stroke-miterlimit:10;}
	.st9{fill:url(#SVGID_1_);stroke:url(#SVGID_2_);stroke-miterlimit:10;}
</style>
<g>
	<path class="st0" d="M53,414.9H35.3c-4.9,0-8.8-4-8.8-8.8v-17.7h35.3v17.7C61.8,410.9,57.8,414.9,53,414.9z"/>
	<path class="st0" d="M476.7,414.9H459c-4.9,0-8.8-4-8.8-8.8v-17.7h35.3v17.7C485.5,410.9,481.6,414.9,476.7,414.9z"/>
</g>
<path class="st1" d="M485.5,397.2h-459C11.9,397.2,0,385.4,0,370.8V123.6C0,109,11.9,97.1,26.5,97.1h459c14.6,0,26.5,11.9,26.5,26.5
	v247.2C512,385.4,500.1,397.2,485.5,397.2z"/>
<path class="st0" d="M397.2,379.6H35.3c-9.8,0-17.7-7.9-17.7-17.7V132.4c0-9.8,7.9-17.7,17.7-17.7h361.9c9.8,0,17.7,7.9,17.7,17.7
	v229.5C414.9,371.7,407,379.6,397.2,379.6z"/>
<path class="st1" d="M379.6,353.1L379.6,353.1c4.9,0,8.8-4,8.8-8.8V150.1c0-4.9-4-8.8-8.8-8.8l0,0c-4.9,0-8.8,4-8.8,8.8v194.2
	C370.8,349.2,374.7,353.1,379.6,353.1z"/>
<path class="st2" d="M53,353.1h282.5c4.9,0,8.8-4,8.8-8.8V150.1c0-4.9-4-8.8-8.8-8.8H53c-4.9,0-8.8,4-8.8,8.8v194.2
	C44.1,349.2,48.1,353.1,53,353.1z"/>
<g>
	<circle class="st3" cx="463.4" cy="339.9" r="22.1"/>
	<circle class="st3" cx="463.4" cy="278.1" r="22.1"/>
</g>
<g>
	<path class="st4" d="M476.7,220.7h-26.5c-4.9,0-8.8-4-8.8-8.8l0,0c0-4.9,4-8.8,8.8-8.8h26.5c4.9,0,8.8,4,8.8,8.8l0,0
		C485.5,216.7,481.6,220.7,476.7,220.7z"/>
	<path class="st4" d="M476.7,185.4h-26.5c-4.9,0-8.8-4-8.8-8.8l0,0c0-4.9,4-8.8,8.8-8.8h26.5c4.9,0,8.8,4,8.8,8.8l0,0
		C485.5,181.4,481.6,185.4,476.7,185.4z"/>
	<path class="st4" d="M476.7,150.1h-26.5c-4.9,0-8.8-4-8.8-8.8l0,0c0-4.9,4-8.8,8.8-8.8h26.5c4.9,0,8.8,4,8.8,8.8l0,0
		C485.5,146.1,481.6,150.1,476.7,150.1z"/>
</g>
<g>
	<path class="st5" d="M186.8,274.8c-2.3,0-4.5-0.9-6.2-2.6l-82.9-82.9c-3.4-3.4-3.4-9,0-12.5c3.4-3.4,9-3.4,12.5,0l82.9,82.9
		c3.4,3.4,3.4,9,0,12.5C191.3,273.9,189.1,274.8,186.8,274.8z"/>
	<path class="st5" d="M300.1,337.3c-2.3,0-4.5-0.9-6.2-2.6l-63.6-63.6c-3.4-3.4-3.4-9,0-12.5c3.4-3.4,9-3.4,12.5,0l63.6,63.6
		c3.4,3.4,3.4,9,0,12.5C304.7,336.4,302.4,337.3,300.1,337.3z"/>
</g>
<path class="st6" d="M210.1,247.2c-2.3,0-4.5-0.9-6.2-2.6l-19.9-19.9c-3.4-3.4-3.4-9,0-12.5c3.4-3.4,9-3.4,12.5,0l19.9,19.9
	c3.4,3.4,3.4,9,0,12.5C214.6,246.3,212.3,247.2,210.1,247.2z"/>
<path class="st7" d="M335.4,141.2H53c-4.9,0-8.8,4-8.8,8.8v17.7c0-4.9,4-8.8,8.8-8.8h282.5c4.9,0,8.8,4,8.8,8.8v-17.7
	C344.3,145.2,340.3,141.2,335.4,141.2z"/>
<line class="st8" x1="10.9" y1="102.2" x2="505.3" y2="388.4"/>
<linearGradient id="SVGID_1_" gradientUnits="userSpaceOnUse" x1="6.749" y1="244.381" x2="498.2249" y2="244.381">
	<stop  offset="0" style="stop-color:#FFFFFF"/>
	<stop  offset="0" style="stop-color:#C11500"/>
	<stop  offset="1" style="stop-color:#000000"/>
</linearGradient>
<linearGradient id="SVGID_2_" gradientUnits="userSpaceOnUse" x1="6.4962" y1="244.381" x2="498.4777" y2="244.381">
	<stop  offset="0" style="stop-color:#FFFFFF"/>
	<stop  offset="0" style="stop-color:#C11500"/>
	<stop  offset="1" style="stop-color:#000000"/>
</linearGradient>
<line class="st9" x1="6.7" y1="388.4" x2="498.2" y2="100.3"/>
</svg>
